<svg width="187" height="75" viewBox="0 0 187 75" fill="none" xmlns="http://www.w3.org/2000/svg">
<path d="M68.3811 47H73.4131V36.12H82.9331V47H87.9311V21.84H82.9331V31.734H73.4131V21.84H68.3811V47ZM98.3975 47.34C100.574 47.34 102.512 46.456 104.144 45.062H104.246L104.62 47H108.7V35.882C108.7 30.272 106.252 27.484 101.39 27.484C98.3975 27.484 95.5415 28.47 93.4675 29.728L94.9635 33.298C96.6975 32.176 98.7035 31.496 100.472 31.496C101.934 31.496 102.852 31.802 103.26 32.38C103.634 33.162 103.804 33.978 103.702 34.794C95.8135 35.032 92.5155 37.174 92.7535 41.832C92.7535 45.13 94.9975 47.34 98.3975 47.34ZM99.9275 43.532C98.4655 43.532 97.3775 42.58 97.3435 40.982C97.3095 39.622 98.0915 38.534 100.268 38.228C101.356 38.058 102.512 37.956 103.702 37.854V41.696C102.512 42.886 101.39 43.498 99.9275 43.532ZM111.651 47H116.819L118.587 43.532C119.131 42.342 119.641 41.254 120.185 40.166H120.355C121.001 41.254 121.545 42.41 122.191 43.532L124.299 47H129.671L123.721 37.65L129.297 27.96H124.129L122.531 31.36C122.089 32.414 121.579 33.502 121.137 34.556H121.001C120.423 33.502 119.879 32.448 119.301 31.36L117.397 27.96H112.025L117.601 37.072L111.651 47ZM137.407 20.072H132.443V24.9H137.407V20.072ZM137.373 47V27.96H132.409V47H137.373ZM150.238 47.476C154.998 47.476 159.384 43.77 159.384 37.514C159.384 31.156 154.998 27.484 150.238 27.484C145.478 27.484 141.092 31.156 141.092 37.514C141.092 43.77 145.478 47.476 150.238 47.476ZM150.238 43.396C147.654 43.396 146.192 41.084 146.192 37.514C146.192 33.842 147.654 31.564 150.238 31.564C152.822 31.564 154.284 33.842 154.284 37.514C154.284 41.084 152.822 43.396 150.238 43.396ZM169.005 47.476C173.969 47.476 176.587 44.79 176.587 41.458C176.587 37.888 173.799 36.698 171.283 35.712C169.277 34.998 167.407 34.42 167.407 33.06C167.407 31.972 168.189 31.224 169.923 31.224C171.385 31.224 172.677 31.904 174.037 32.856L176.281 29.83C174.683 28.64 172.643 27.484 169.787 27.484C165.537 27.484 162.715 29.898 162.715 33.332C162.715 36.494 165.503 37.99 167.917 38.874C169.923 39.69 171.895 40.302 171.895 41.73C171.895 42.92 171.045 43.736 169.141 43.736C167.373 43.736 165.775 42.988 164.041 41.662L161.763 44.79C163.667 46.388 166.421 47.476 169.005 47.476Z" fill="white"/>
<rect width="16.5957" height="74.6808" rx="2" fill="#BAC8FF"/>
<rect x="16.5957" y="41.4893" width="11.617" height="23.234" transform="rotate(-90 16.5957 41.4893)" fill="#A1A3AD" fill-opacity="0.8"/>
<rect x="39.8298" width="16.5957" height="74.6808" rx="2" fill="#BAC8FF"/>
</svg>
