<svg width="128" height="45" viewBox="0 0 128 45" fill="none" xmlns="http://www.w3.org/2000/svg">
<path d="M39.7178 9.8H42.9938V20.204H54.5858V9.8H57.8618V35H54.5858V23.408H42.9938V35H39.7178V9.8ZM65.3841 35.36C64.0401 35.36 62.9361 34.88 62.0721 33.92C61.2081 32.96 60.7761 31.736 60.7761 30.248C60.7761 28.04 61.7001 26.456 63.5481 25.496C65.3961 24.512 67.4601 23.996 69.7401 23.948C69.7401 22.412 69.5121 21.344 69.0561 20.744C68.6001 20.144 67.8321 19.844 66.7521 19.844C65.3601 19.844 63.9441 20.384 62.5041 21.464L62.1081 18.836C63.6201 17.612 65.3721 17 67.3641 17C69.2601 17 70.6641 17.552 71.5761 18.656C72.4881 19.736 72.9441 21.488 72.9441 23.912V29.06C72.9441 30.428 73.0401 31.4 73.2321 31.976C73.4241 32.528 73.8441 32.804 74.4921 32.804H74.8881L74.4921 35.36H73.8081C72.7041 35.36 71.8881 35.156 71.3601 34.748C70.8321 34.34 70.4001 33.68 70.0641 32.768C69.5121 33.56 68.8281 34.196 68.0121 34.676C67.1961 35.132 66.3201 35.36 65.3841 35.36ZM66.3561 32.804C66.9321 32.804 67.5321 32.588 68.1561 32.156C68.7801 31.7 69.3081 31.112 69.7401 30.392V26.18C67.8921 26.276 66.4881 26.636 65.5281 27.26C64.5681 27.86 64.0881 28.796 64.0881 30.068C64.0881 31.892 64.8441 32.804 66.3561 32.804ZM80.9575 26.216L75.8815 17.36H79.5895L83.0095 24.416L86.1415 17.36H89.9215L84.9535 25.928L90.0655 35H86.3215L82.9015 28.016L79.5175 35H75.8095L80.9575 26.216ZM92.4454 9.8H95.5774V13.364H92.4454V9.8ZM92.4454 17.36H95.5774V35H92.4454V17.36ZM106.237 35.36C104.653 35.36 103.285 34.964 102.133 34.172C100.981 33.356 100.093 32.252 99.4691 30.86C98.8691 29.468 98.5691 27.908 98.5691 26.18C98.5691 24.452 98.8691 22.892 99.4691 21.5C100.093 20.108 100.981 19.016 102.133 18.224C103.285 17.408 104.653 17 106.237 17C107.797 17 109.153 17.408 110.305 18.224C111.457 19.016 112.333 20.108 112.933 21.5C113.533 22.892 113.833 24.452 113.833 26.18C113.833 27.908 113.533 29.468 112.933 30.86C112.333 32.252 111.457 33.356 110.305 34.172C109.153 34.964 107.797 35.36 106.237 35.36ZM106.237 32.588C107.629 32.588 108.709 32.024 109.477 30.896C110.245 29.768 110.629 28.196 110.629 26.18C110.629 24.164 110.245 22.604 109.477 21.5C108.709 20.372 107.629 19.808 106.237 19.808C104.797 19.808 103.693 20.372 102.925 21.5C102.157 22.604 101.773 24.164 101.773 26.18C101.773 28.22 102.157 29.804 102.925 30.932C103.693 32.036 104.797 32.588 106.237 32.588ZM121.238 35.36C119.174 35.36 117.386 34.88 115.874 33.92L116.27 30.752C117.806 31.952 119.39 32.552 121.022 32.552C121.886 32.552 122.558 32.372 123.038 32.012C123.542 31.652 123.794 31.124 123.794 30.428C123.794 29.9 123.674 29.468 123.434 29.132C123.218 28.796 122.846 28.472 122.318 28.16C121.79 27.848 120.974 27.44 119.87 26.936C118.574 26.336 117.626 25.652 117.026 24.884C116.426 24.116 116.126 23.12 116.126 21.896C116.126 20.456 116.63 19.28 117.638 18.368C118.646 17.456 120.002 17 121.706 17C123.434 17 124.946 17.384 126.242 18.152L125.846 21.068C125.198 20.636 124.586 20.324 124.01 20.132C123.434 19.916 122.75 19.808 121.958 19.808C121.118 19.808 120.458 19.988 119.978 20.348C119.498 20.708 119.258 21.212 119.258 21.86C119.258 22.508 119.462 23 119.87 23.336C120.302 23.672 121.13 24.116 122.354 24.668C124.058 25.436 125.258 26.216 125.954 27.008C126.65 27.776 126.998 28.796 126.998 30.068C126.998 31.724 126.482 33.02 125.45 33.956C124.418 34.892 123.014 35.36 121.238 35.36Z" fill="#3D3D3E"/>
<rect width="10" height="45" rx="2" fill="#BAC8FF"/>
<rect x="10" y="25" width="7" height="14" transform="rotate(-90 10 25)" fill="#4D5264" fill-opacity="0.8"/>
<rect x="24" width="10" height="45" rx="2" fill="#BAC8FF"/>
</svg>
